<svg width="16" height="20" viewBox="0 0 16 20" fill="none" xmlns="http://www.w3.org/2000/svg">
<path d="M5.3845 1V0H10.6155V1H5.3845ZM7.5 12.1155H8.5V6.8845H7.5V12.1155ZM4.8875 18.874C3.91767 18.4567 3.06925 17.8846 2.34225 17.1578C1.61542 16.4307 1.04333 15.5823 0.626 14.6125C0.208667 13.6427 0 12.6052 0 11.5C0 10.3948 0.208667 9.35733 0.626 8.3875C1.04333 7.41767 1.61542 6.56925 2.34225 5.84225C3.06925 5.11542 3.91767 4.54333 4.8875 4.126C5.85733 3.70867 6.89483 3.5 8 3.5C8.96917 3.5 9.90633 3.67308 10.8115 4.01925C11.7167 4.36542 12.5474 4.85517 13.3038 5.4885L14.3962 4.39625L15.1038 5.10375L14.0115 6.19625C14.6448 6.95258 15.1346 7.78333 15.4808 8.6885C15.8269 9.59367 16 10.5308 16 11.5C16 12.6052 15.7913 13.6427 15.374 14.6125C14.9567 15.5823 14.3846 16.4307 13.6578 17.1578C12.9307 17.8846 12.0823 18.4567 11.1125 18.874C10.1427 19.2913 9.10517 19.5 8 19.5C6.89483 19.5 5.85733 19.2913 4.8875 18.874ZM12.95 16.45C14.3167 15.0833 15 13.4333 15 11.5C15 9.56667 14.3167 7.91667 12.95 6.55C11.5833 5.18333 9.93333 4.5 8 4.5C6.06667 4.5 4.41667 5.18333 3.05 6.55C1.68333 7.91667 1 9.56667 1 11.5C1 13.4333 1.68333 15.0833 3.05 16.45C4.41667 17.8167 6.06667 18.5 8 18.5C9.93333 18.5 11.5833 17.8167 12.95 16.45Z" fill="#666666"/>
</svg>
