<svg width="18" height="18" viewBox="0 0 18 18" fill="none" xmlns="http://www.w3.org/2000/svg">
<path d="M14.625 18C12.761 18 11.25 16.489 11.25 14.625V3.375C11.25 1.51104 12.761 0 14.625 0C16.489 0 18 1.51104 18 3.375V14.625C18 16.489 16.489 18 14.625 18ZM3.375 18C1.51104 18 0 16.489 0 14.625V3.375C0 1.51104 1.51104 0 3.375 0C5.23896 0 6.75 1.51104 6.75 3.375V14.625C6.75 16.489 5.23896 18 3.375 18ZM12.75 14.625C12.75 15.6605 13.5895 16.5 14.625 16.5C15.6605 16.5 16.5 15.6605 16.5 14.625V3.375C16.5 2.33947 15.6605 1.5 14.625 1.5C13.5895 1.5 12.75 2.33947 12.75 3.375V14.625ZM1.5 14.625C1.5 15.6605 2.33947 16.5 3.375 16.5C4.41053 16.5 5.25 15.6605 5.25 14.625V3.375C5.25 2.33947 4.41053 1.5 3.375 1.5C2.33947 1.5 1.5 2.33947 1.5 3.375V14.625Z" fill="white"/>
</svg>
