<svg width="16" height="19" viewBox="0 0 16 19" fill="none" xmlns="http://www.w3.org/2000/svg">
<path d="M4.88175 17.7588C3.91192 17.3414 3.0645 16.7703 2.3395 16.0452C1.6145 15.3203 1.04333 14.4728 0.626 13.503C0.208667 12.5332 0 11.4938 0 10.3848H1C1 12.3348 1.67917 13.9889 3.0375 15.3473C4.39583 16.7056 6.05 17.3848 8 17.3848C9.95 17.3848 11.6042 16.7056 12.9625 15.3473C14.3208 13.9889 15 12.3348 15 10.3848C15 8.43475 14.3208 6.78058 12.9625 5.42225C11.6042 4.06392 9.95 3.38475 8 3.38475H7.61925L9.24625 5.01175L8.5385 5.731L5.69225 2.8655L8.577 0L9.2845 0.719251L7.61925 2.38475H8C9.109 2.38475 10.1484 2.59342 11.1182 3.01075C12.0881 3.42808 12.9355 3.99925 13.6605 4.72425C14.3855 5.44925 14.9567 6.29667 15.374 7.2665C15.7913 8.23633 16 9.27575 16 10.3848C16 11.4938 15.7913 12.5332 15.374 13.503C14.9567 14.4728 14.3855 15.3203 13.6605 16.0452C12.9355 16.7703 12.0881 17.3414 11.1182 17.7588C10.1484 18.1761 9.109 18.3848 8 18.3848C6.891 18.3848 5.85158 18.1761 4.88175 17.7588Z" fill="#666666"/>
</svg>
