<svg width="20" height="20" viewBox="0 0 20 20" fill="none" xmlns="http://www.w3.org/2000/svg">
<path d="M7.63158 14.2511L14.2511 10L7.63158 5.74895V14.2511ZM10.0018 20C8.61868 20 7.3186 19.7375 6.10158 19.2126C4.88456 18.6877 3.82596 17.9754 2.92579 17.0755C2.02561 16.1757 1.31289 15.1175 0.787631 13.9011C0.262544 12.6846 0 11.3848 0 10.0018C0 8.61868 0.262456 7.3186 0.787368 6.10158C1.31228 4.88456 2.02465 3.82596 2.92447 2.92579C3.8243 2.02561 4.88246 1.31289 6.09895 0.787631C7.31544 0.262544 8.61518 0 9.99816 0C11.3813 0 12.6814 0.262456 13.8984 0.787368C15.1154 1.31228 16.174 2.02465 17.0742 2.92447C17.9744 3.8243 18.6871 4.88246 19.2124 6.09895C19.7375 7.31544 20 8.61518 20 9.99816C20 11.3813 19.7375 12.6814 19.2126 13.8984C18.6877 15.1154 17.9754 16.174 17.0755 17.0742C16.1757 17.9744 15.1175 18.6871 13.9011 19.2124C12.6846 19.7375 11.3848 20 10.0018 20ZM10 18.4211C12.3509 18.4211 14.3421 17.6053 15.9737 15.9737C17.6053 14.3421 18.4211 12.3509 18.4211 10C18.4211 7.64912 17.6053 5.65789 15.9737 4.02632C14.3421 2.39474 12.3509 1.57895 10 1.57895C7.64912 1.57895 5.65789 2.39474 4.02632 4.02632C2.39474 5.65789 1.57895 7.64912 1.57895 10C1.57895 12.3509 2.39474 14.3421 4.02632 15.9737C5.65789 17.6053 7.64912 18.4211 10 18.4211Z" fill="white"/>
</svg>
