<svg width="31" height="38" viewBox="0 0 31 38" fill="none" xmlns="http://www.w3.org/2000/svg">
<path d="M10.4325 1.94872V0H20.5675V1.94872H10.4325ZM14.5312 23.6097H16.4688V13.4159H14.5312V23.6097ZM9.46953 36.7801C7.59048 35.9668 5.94667 34.852 4.53811 33.4356C3.12987 32.0189 2.02146 30.3656 1.21287 28.4756C0.404291 26.5857 0 24.5639 0 22.4103C0 20.2566 0.404291 18.2348 1.21287 16.3449C2.02146 14.4549 3.12987 12.8016 4.53811 11.3849C5.94667 9.9685 7.59048 8.85367 9.46953 8.04041C11.3486 7.22714 13.3587 6.82051 15.5 6.82051C17.3778 6.82051 19.1935 7.1578 20.9473 7.83239C22.701 8.50697 24.3106 9.46135 25.776 10.6955L27.8927 8.56705L29.2635 9.94577L27.1473 12.0747C28.3744 13.5486 29.3233 15.1675 29.994 16.9314C30.6646 18.6953 31 20.5216 31 22.4103C31 24.5639 30.5957 26.5857 29.7871 28.4756C28.9785 30.3656 27.8701 32.0189 26.4619 33.4356C25.0533 34.852 23.4095 35.9668 21.5305 36.7801C19.6514 37.5934 17.6413 38 15.5 38C13.3587 38 11.3486 37.5934 9.46953 36.7801ZM25.0906 32.0564C27.7385 29.3932 29.0625 26.1778 29.0625 22.4103C29.0625 18.6427 27.7385 15.4274 25.0906 12.7641C22.4427 10.1009 19.2458 8.76923 15.5 8.76923C11.7542 8.76923 8.55729 10.1009 5.90937 12.7641C3.26146 15.4274 1.9375 18.6427 1.9375 22.4103C1.9375 26.1778 3.26146 29.3932 5.90937 32.0564C8.55729 34.7197 11.7542 36.0513 15.5 36.0513C19.2458 36.0513 22.4427 34.7197 25.0906 32.0564Z" fill="#FE9957"/>
</svg>
